PathFileType	4	(X/Y/Z)	C:\Users\WrightLab\Desktop\Jo\P1.2Trial36.trc
DataRate	CameraRate	NumFrames	NumMarkers	Units	OrigDataRate	OrigDataStartFrame	OrigNumFrames
100.00	100.00	      32	19	mm	100.00	386	      1029
Frame#	Time	Headset_Front			Headset_Back			Headset_Left			Headset_Right			Left_Shoulder			Right_Shoulder			Sternum			C7			Left Elbow			Right Elbow			Left Wrist			Right Wrist			Left ASIS			Right ASIS			S2			Left Knee			Right Knee			Left Ankle			Right Ankle			
		X1	Y1	Z1	X2	Y2	Z2	X3	Y3	Z3	X4	Y4	Z4	X5	Y5	Z5	X6	Y6	Z6	X7	Y7	Z7	X8	Y8	Z8	X9	Y9	Z9	X10	Y10	Z10	X11	Y11	Z11	X12	Y12	Z12	X13	Y13	Z13	X14	Y14	Z14	X15	Y15	Z15	X16	Y16	Z16	X17	Y17	Z17	X18	Y18	Z18	X19	Y19	Z19	

386	3.850																												-229.41873	996.33728	1475.34692				-284.34518	762.82153	1338.95117							-714.51752	496.75287	1656.50610				-382.93475	441.35669	1547.25732							
387	3.860																												-231.37845	995.71808	1475.41504				-285.57388	758.84705	1346.49487				-425.93723	853.28888	1486.47021	-716.84808	497.52402	1654.62500				-384.13492	441.54721	1546.54822							
388	3.870																												-233.36777	995.29041	1475.92773				-288.20123	753.85864	1354.81958				-428.31241	852.97363	1485.84045	-719.13647	498.21475	1652.58069				-387.01166	441.16217	1545.50537							
389	3.880																												-235.42946	995.16827	1477.33533				-291.11600	750.33411	1362.84949				-432.71051	851.46552	1487.51343	-721.70374	499.24295	1650.36621				-387.96680	441.03705	1543.94580							
390	3.890																												-237.68097	995.06293	1478.37427				-294.36932	746.31439	1370.83655				-434.65472	853.13843	1482.52209	-725.20490	500.13165	1648.66113				-389.82675	441.21478	1543.57654							
391	3.900																												-240.13353	994.67273	1479.46716				-297.52225	743.28931	1378.45020				-438.75095	851.76154	1483.41248	-728.75635	501.29636	1646.75977				-392.34003	440.27786	1542.76379							
392	3.910																												-242.19319	994.66766	1480.41956				-300.75458	740.21521	1386.58838				-441.79337	851.02783	1481.48425	-732.39026	502.40143	1644.74744				-393.30170	439.85486	1541.92334							
393	3.920																												-244.76015	994.45319	1481.08264				-304.84610	737.04071	1394.86646				-445.22687	852.20721	1480.01709	-735.76941	503.16287	1642.64099				-395.62878	439.84650	1540.76746							
394	3.930																												-247.66997	994.35303	1482.06592				-308.71426	735.20917	1401.91370				-447.89835	850.42023	1480.67395	-738.90125	503.84921	1640.90454				-397.90747	439.65775	1539.14258							
395	3.940																												-250.66144	994.16821	1483.16187				-312.52029	733.06458	1410.45618				-451.14407	851.09796	1476.72827	-742.01978	504.42590	1639.17712				-400.87946	439.53790	1537.72253							
396	3.950																												-253.67023	994.15161	1484.66125				-317.19879	731.91656	1417.00586				-454.34082	851.84662	1472.73303	-745.17999	504.81598	1636.71643				-402.20685	439.21103	1536.21912							
397	3.960																												-257.60635	994.04431	1485.59570				-321.36932	730.35999	1423.47681				-457.17200	852.55853	1468.33691	-748.46558	505.18274	1635.04443				-405.43616	439.24652	1534.88635							
398	3.970																												-261.39899	993.92194	1486.15210				-325.99512	729.73254	1431.35022				-459.52335	852.97693	1468.49072	-751.53821	505.27954	1633.29968				-407.22302	438.69092	1533.67407							
399	3.980																												-265.42770	993.72394	1486.05835				-330.80872	728.40240	1436.70044				-464.06464	850.34357	1468.86133	-754.72980	505.03076	1631.35132				-409.64209	437.29520	1533.49634							
400	3.990																												-269.73502	993.61243	1486.53516				-335.33109	727.73676	1441.08142				-467.41367	850.91248	1465.02759	-758.17694	504.93768	1629.16040				-411.53485	437.65875	1531.92712							
401	4.000																												-274.12906	993.56647	1486.76794				-339.76099	727.41071	1445.86279				-470.27109	851.82446	1462.58569	-761.43640	504.56699	1627.36328				-415.13126	436.99182	1531.33496							
402	4.010																												-278.31601	993.35596	1486.08142				-344.09393	726.78003	1448.62659				-473.65189	851.44525	1461.59082	-765.04443	504.18002	1625.59863				-417.61176	436.53485	1528.71252							
403	4.020																												-282.32361	992.83789	1483.82898				-348.05017	726.03369	1452.07605				-478.84265	849.86047	1462.47351	-768.46350	503.76376	1623.05847				-420.33453	436.01935	1528.24854							
404	4.030																												-286.54346	992.90417	1482.65955				-352.45645	725.68182	1453.74243				-483.09186	849.93268	1459.60242	-772.25995	503.27023	1621.24097				-422.25314	435.58258	1527.39624							
405	4.040																												-290.83994	992.45709	1478.73425				-356.10535	725.10132	1454.54224				-486.93170	849.16125	1457.23840	-776.16986	502.49948	1619.06580				-424.77545	436.03534	1525.55603							
406	4.050																												-295.54385	992.10248	1475.61865				-359.97458	725.11487	1453.97461				-491.07498	848.66168	1456.10510	-780.18628	501.86835	1616.36865				-426.76059	436.41595	1525.10815							
407	4.060																												-299.89774	990.94299	1472.07251				-363.72153	724.35236	1452.58228				-494.94531	849.19269	1450.93555	-784.25287	501.13068	1613.22485				-429.67480	436.32626	1524.70178							
408	4.070																												-305.15704	990.36298	1467.97778				-367.01764	723.98901	1449.49353				-499.97586	847.02435	1453.57727	-788.60791	500.37579	1610.12720				-431.70432	435.26108	1522.89758							
409	4.080																												-310.23514	989.71295	1464.91663				-370.94330	723.86865	1445.07813				-504.67719	846.76477	1447.95557	-792.92993	499.16125	1606.40234				-434.26721	434.50845	1522.70935							
410	4.090																												-315.86874	988.69434	1460.33508				-374.99158	723.26245	1440.30334				-509.41360	845.14728	1445.17810	-797.50427	498.13742	1603.09326				-437.92075	433.65985	1521.20203							
411	4.100																												-321.45016	988.34692	1456.25354				-378.06522	722.41095	1434.33850				-514.60852	844.49670	1443.28113	-801.98895	496.97742	1599.15454				-441.11176	433.00879	1519.05542							
412	4.110																												-326.81299	986.98602	1451.58508				-381.58908	721.18091	1428.64258				-520.14471	844.03076	1439.88123	-807.07843	495.94250	1595.19421				-444.97400	431.76694	1517.64270							
413	4.120																												-332.48120	986.37897	1447.23279				-384.99084	719.42139	1421.03174				-525.75232	842.58575	1436.16309	-812.08606	495.05945	1590.55457				-448.94720	430.42218	1516.50427							
414	4.130																												-338.39050	985.56073	1442.03101				-388.97186	717.85730	1413.28394				-531.77460	841.58472	1435.12036	-817.76111	493.82550	1585.78162				-453.01202	430.32791	1515.24060							
415	4.140																												-344.46243	984.34113	1437.67920				-392.49887	717.22644	1404.92859				-537.33215	840.10492	1432.59302	-823.71375	492.59805	1581.00220				-457.63312	429.74347	1512.14307							
416	4.150																												-350.63220	983.16638	1432.72668				-396.63757	715.82086	1396.57751				-542.02527	840.01361	1427.16956	-829.68518	491.41284	1575.95813				-462.37189	428.32391	1510.30994							
417	4.160																												-356.87421	981.86615	1428.03479				-399.64282	714.59326	1386.91931				-549.49542	838.34143	1426.11133	-835.64270	489.91074	1570.54114				-467.44031	427.36508	1507.99341							
